<svg width="26" height="24" viewBox="0 0 26 24" fill="none" xmlns="http://www.w3.org/2000/svg">
<path d="M6.5 20C6.5 18.4087 7.18482 16.8826 8.4038 15.7574C9.62279 14.6321 11.2761 14 13 14C14.7239 14 16.3772 14.6321 17.5962 15.7574C18.8152 16.8826 19.5 18.4087 19.5 20" stroke="#26272B" stroke-width="1.6" stroke-linecap="round" stroke-linejoin="round"/>
<path d="M12.9999 14C10.6067 14 8.66658 12.2091 8.66658 10C8.66658 7.79086 10.6067 6 12.9999 6C15.3932 6 17.3333 7.79086 17.3333 10C17.3333 12.2091 15.3932 14 12.9999 14Z" stroke="#26272B" stroke-width="1.6" stroke-linecap="round" stroke-linejoin="round"/>
<path d="M12.9999 22C7.01683 22 2.16658 17.5228 2.16658 12C2.16658 6.47715 7.01683 2 12.9999 2C18.983 2 23.8333 6.47715 23.8333 12C23.8333 17.5228 18.983 22 12.9999 22Z" stroke="#26272B" stroke-width="1.6" stroke-linecap="round" stroke-linejoin="round"/>
</svg>
